<?xml version="1.0" encoding="UTF-8"?>
<svg id="Layer_1" data-name="Layer 1" xmlns="http://www.w3.org/2000/svg" width="512" height="512" viewBox="0 0 512 512">
  <polyline points="200.43 438.36 257.52 476 311.57 438.36" style="fill: none; stroke: #fff; stroke-miterlimit: 10; stroke-width: 6px;"/>
  <path d="M256,47.15c-13.65,1-46.69,5.6-72.71,33.81-15.41,16.71-21.38,34.13-28.42,55.4-8.63,26.05-30.01,90.61-6.46,159.71,6.22,18.24,15.35,44.01,39.4,64.03,24.92,20.74,53.84,23.24,60.72,23.74,4.18.3,9.24.41,14.93,0,6.88-.5,35.61-3.28,60.72-23.74,24.34-19.83,33.48-46.67,39.4-64.03,23.55-69.1,2.17-133.66-6.46-159.71-7.04-21.26-13.01-38.69-28.42-55.4-26.02-28.21-59.05-32.82-72.71-33.81" style="fill: none; stroke: #fff; stroke-miterlimit: 10; stroke-width: 6px;"/>
  <path d="M256,97.93v59.75" style="fill: none; stroke: #fff; stroke-linecap: round; stroke-miterlimit: 10; stroke-width: 6px;"/>
  <polyline points="200.43 400.72 257.52 438.36 311.57 400.72" style="fill: none; stroke: #fff; stroke-miterlimit: 10; stroke-width: 6px;"/>
</svg>